<svg
  xmlns="http://www.w3.org/2000/svg"
  fill="#ffffff"
  viewBox="0 0 24 24"
  width="24"
  height="24"
>
  <title>LinkedIn icon</title>
  <path d="M22.23 0H1.77C.79 0 0 .77 0 1.72v20.56C0 23.23.79 24 1.77 24h20.46c.98 0 1.77-.77 1.77-1.72V1.72C24 .77 23.21 0 22.23 0zM7.09 20.45H3.56V8.99h3.53v11.46zm-1.77-13.3a2.04 2.04 0 0 1-2.06-2.04 2.04 2.04 0 1 1 4.12 0 2.04 2.04 0 0 1-2.06 2.04zm15.92 13.3h-3.53v-5.64c0-1.34-.03-3.07-1.87-3.07-1.87 0-2.16 1.46-2.16 2.97v5.74h-3.53V8.99h3.39v1.57h.05c.47-.89 1.62-1.82 3.33-1.82 3.56 0 4.21 2.34 4.21 5.39v6.32z"/>
</svg>
